<svg xmlns="http://www.w3.org/2000/svg" viewBox="0 0 37.32 26.46"><defs><style>.cls-1{fill:#e83b3b;}</style></defs><g id="Calque_2" data-name="Calque 2"><g id="Calque_1-2" data-name="Calque 1"><path class="cls-1" d="M19.93,0H37.08a.25.25,0,0,1,.24.29l-.73,4.12L35.78,9a8.59,8.59,0,0,1-4.87,6.13l-3.56,1.64c-.79.36-1,1.39-.31,1.75l5,2.73a2.4,2.4,0,0,1,1.16,2.62l-.42,2.4a.25.25,0,0,1-.24.2H24.17a.25.25,0,0,1-.24-.29l1.19-6.71A2.43,2.43,0,0,0,24,16.83L18.88,14a2.41,2.41,0,0,1-1.16-2.63L19.69.2A.26.26,0,0,1,19.93,0Z"/><path class="cls-1" d="M1.81,0H15a.25.25,0,0,1,.24.29l-.56,3.14L14.09,7a6.71,6.71,0,0,1-3.79,4.77L7.52,13c-.61.28-.75,1.08-.24,1.36l3.86,2.12a1.88,1.88,0,0,1,.91,2l-.32,1.82a.26.26,0,0,1-.24.2H5.12a.25.25,0,0,1-.24-.29l.91-5.16a1.89,1.89,0,0,0-.9-2L.94,10.92a1.87,1.87,0,0,1-.9-2L1.56.2A.27.27,0,0,1,1.81,0Z"/></g></g></svg>